<svg width="156" height="32" viewBox="0 0 156 32" fill="none" xmlns="http://www.w3.org/2000/svg">
<g filter="url(#filter0_d_78_24)">
<path d="M50.8869 12.4186C50.8869 13.5674 50.7132 14.5871 50.3659 15.4776C50.0186 16.3592 49.5422 17.1028 48.9366 17.7084C48.3399 18.305 47.632 18.7592 46.8127 19.0709C45.9934 19.3826 45.1162 19.5384 44.1812 19.5384C43.0413 19.5384 42.0661 19.3203 41.2558 18.8839C40.4454 18.4475 39.7552 17.8598 39.1853 17.1206L38.878 17.3744L40.5478 19.5384V24H35.2046V5.29882H43.4198C44.5507 5.29882 45.5748 5.45466 46.4921 5.76635C47.4093 6.07803 48.193 6.53666 48.8431 7.14222C49.4932 7.73888 49.9963 8.48247 50.3525 9.373C50.7088 10.2546 50.8869 11.2698 50.8869 12.4186ZM43.7537 14.1952C44.0476 14.1952 44.3058 14.1463 44.5285 14.0483C44.7511 13.9503 44.9381 13.8212 45.0895 13.6609C45.2409 13.4917 45.3522 13.3003 45.4235 13.0865C45.5036 12.8728 45.5437 12.6502 45.5437 12.4186C45.5437 12.1871 45.5036 11.9645 45.4235 11.7507C45.3522 11.537 45.2409 11.35 45.0895 11.1897C44.9381 11.0205 44.7511 10.8869 44.5285 10.789C44.3058 10.691 44.0476 10.642 43.7537 10.642H40.5478V14.1952H43.7537ZM57.8453 18.0156V24H52.5021V5.29882H61.5321C62.6275 5.29882 63.6026 5.42795 64.4575 5.6862C65.3124 5.93555 66.0382 6.30957 66.6349 6.80827C67.2315 7.30697 67.6857 7.92589 67.9974 8.66503C68.3091 9.39527 68.4649 10.2457 68.4649 11.2164C68.4649 13.042 67.8905 14.4535 66.7418 15.4509C65.593 16.4483 63.8564 16.947 61.5321 16.947V17.3477H65.9002L68.8924 24H63.0149L60.7707 18.9507C60.6193 18.6301 60.4101 18.3941 60.1429 18.2427C59.8757 18.0913 59.573 18.0156 59.2346 18.0156H57.8453ZM62.1332 12.9129C62.2935 12.9129 62.4316 12.8817 62.5473 12.8194C62.672 12.7481 62.7744 12.6591 62.8546 12.5522C62.9436 12.4453 63.0104 12.3251 63.0549 12.1915C63.0995 12.058 63.1217 11.9199 63.1217 11.7774C63.1217 11.635 63.0995 11.4969 63.0549 11.3633C63.0104 11.2209 62.9436 11.0962 62.8546 10.9893C62.7744 10.8825 62.672 10.7979 62.5473 10.7355C62.4316 10.6732 62.2935 10.642 62.1332 10.642H57.8453V12.9129H62.1332ZM79.3329 5.05837C80.7399 5.05837 82.0312 5.29437 83.2067 5.76635C84.3822 6.23833 85.393 6.90178 86.239 7.75669C87.085 8.60269 87.744 9.61345 88.216 10.789C88.6969 11.9555 88.9373 13.2424 88.9373 14.6494C88.9373 16.0475 88.6969 17.3344 88.216 18.5099C87.744 19.6854 87.085 20.7006 86.239 21.5555C85.393 22.4015 84.3822 23.0605 83.2067 23.5325C82.0312 24.0045 80.7399 24.2404 79.3329 24.2404C77.9348 24.2404 76.6435 24.0045 75.4591 23.5325C74.2836 23.0605 73.2684 22.4015 72.4135 21.5555C71.5675 20.7006 70.904 19.6854 70.4231 18.5099C69.9511 17.3344 69.7152 16.0475 69.7152 14.6494C69.7152 13.2424 69.9511 11.9555 70.4231 10.789C70.904 9.61345 71.5675 8.60269 72.4135 7.75669C73.2684 6.90178 74.2836 6.23833 75.4591 5.76635C76.6435 5.29437 77.9348 5.05837 79.3329 5.05837ZM79.3329 10.3882C78.7095 10.3882 78.1351 10.4951 77.6097 10.7088C77.0843 10.9136 76.6301 11.2075 76.2472 11.5904C75.8732 11.9645 75.5793 12.4142 75.3656 12.9396C75.1608 13.4561 75.0584 14.026 75.0584 14.6494C75.0584 15.2728 75.1608 15.8472 75.3656 16.3726C75.5793 16.8891 75.8732 17.3388 76.2472 17.7217C76.6301 18.0958 77.0843 18.3896 77.6097 18.6034C78.1351 18.8082 78.7095 18.9106 79.3329 18.9106C79.9563 18.9106 80.5262 18.8082 81.0427 18.6034C81.5681 18.3896 82.0179 18.0958 82.3919 17.7217C82.7748 17.3388 83.0687 16.8891 83.2735 16.3726C83.4872 15.8472 83.5941 15.2728 83.5941 14.6494C83.5941 14.026 83.4872 13.4561 83.2735 12.9396C83.0687 12.4142 82.7748 11.9645 82.3919 11.5904C82.0179 11.2075 81.5681 10.9136 81.0427 10.7088C80.5262 10.4951 79.9563 10.3882 79.3329 10.3882ZM89.8826 18.6568H91.2852C91.5969 18.6568 91.8239 18.59 91.9664 18.4564C92.1089 18.3229 92.1802 18.0913 92.1802 17.7618V10.8825H89.8826L90.4169 5.29882H97.5234V19.5251C97.5234 20.193 97.4076 20.803 97.176 21.3551C96.9534 21.8983 96.6328 22.3703 96.2143 22.7711C95.8046 23.1629 95.3148 23.4657 94.7449 23.6794C94.1839 23.8931 93.5605 24 92.8748 24H89.8826V18.6568ZM99.3855 24V5.29882H113.118V10.642H104.729V11.9778H113.118V17.321H104.729V18.6568H113.118V24H99.3855ZM132.219 20.754C131.355 21.8494 130.273 22.7043 128.973 23.3187C127.682 23.9332 126.226 24.2404 124.605 24.2404C123.207 24.2404 121.916 24.0045 120.731 23.5325C119.556 23.0605 118.54 22.4015 117.686 21.5555C116.84 20.7006 116.176 19.6854 115.695 18.5099C115.223 17.3344 114.987 16.0475 114.987 14.6494C114.987 13.2424 115.223 11.9555 115.695 10.789C116.176 9.61345 116.84 8.60269 117.686 7.75669C118.54 6.90178 119.556 6.23833 120.731 5.76635C121.916 5.29437 123.207 5.05837 124.605 5.05837C126.226 5.05837 127.682 5.36561 128.973 5.98007C130.273 6.59454 131.355 7.44945 132.219 8.54481L127.878 11.8175C127.504 11.3633 127.036 11.0116 126.475 10.7622C125.914 10.5129 125.291 10.3882 124.605 10.3882C123.982 10.3882 123.407 10.4951 122.882 10.7088C122.356 10.9136 121.902 11.2075 121.519 11.5904C121.145 11.9645 120.851 12.4142 120.638 12.9396C120.433 13.4561 120.33 14.026 120.33 14.6494C120.33 15.2728 120.433 15.8472 120.638 16.3726C120.851 16.8891 121.145 17.3388 121.519 17.7217C121.902 18.0958 122.356 18.3896 122.882 18.6034C123.407 18.8082 123.982 18.9106 124.605 18.9106C125.291 18.9106 125.914 18.7859 126.475 18.5366C127.036 18.2783 127.508 17.9221 127.891 17.4679L132.219 20.754ZM138.526 23.9733V10.642H133.557V5.29882H148.865V10.642H143.869V23.9733H138.526ZM148.454 21.3418C148.454 20.9143 148.525 20.5225 148.668 20.1663C148.819 19.8011 149.024 19.4895 149.282 19.2312C149.541 18.964 149.848 18.7592 150.204 18.6167C150.569 18.4742 150.966 18.403 151.393 18.403C151.82 18.403 152.212 18.4742 152.568 18.6167C152.934 18.7592 153.245 18.964 153.504 19.2312C153.762 19.4895 153.962 19.8011 154.105 20.1663C154.256 20.5225 154.332 20.9143 154.332 21.3418C154.332 21.7692 154.256 22.1655 154.105 22.5306C153.962 22.8868 153.762 23.1985 153.504 23.4657C153.245 23.7239 152.934 23.9243 152.568 24.0668C152.212 24.2093 151.82 24.2805 151.393 24.2805C150.966 24.2805 150.569 24.2093 150.204 24.0668C149.848 23.9243 149.541 23.7239 149.282 23.4657C149.024 23.1985 148.819 22.8868 148.668 22.5306C148.525 22.1655 148.454 21.7692 148.454 21.3418Z" fill="white"/>
<path d="M17.7109 3.28516C17.7109 7.99198 13.8953 11.8076 9.18848 11.8076V8.9668H6.34863V14.6484H12.125C12.125 17.7863 9.58124 20.3301 6.44336 20.3301H6.34863V28.8525H0.761719V8.87207C0.761736 5.78684 3.26255 3.2857 6.34766 3.28516H17.7109Z" fill="white"/>
<path d="M26.2363 23.1709C26.2363 26.3088 23.6926 28.8525 20.5547 28.8525V20.1064H12.3672C12.3674 17.0921 14.8108 14.6486 17.8252 14.6484H20.5547V3.28516H26.2363V23.1709Z" fill="white"/>
</g>
<defs>
<filter id="filter0_d_78_24" x="0.761719" y="3.28516" width="154.961" height="27.6481" filterUnits="userSpaceOnUse" color-interpolation-filters="sRGB">
<feFlood flood-opacity="0" result="BackgroundImageFix"/>
<feColorMatrix in="SourceAlpha" type="matrix" values="0 0 0 0 0 0 0 0 0 0 0 0 0 0 0 0 0 0 127 0" result="hardAlpha"/>
<feOffset dx="1.12289" dy="1.8139"/>
<feGaussianBlur stdDeviation="0.133883"/>
<feComposite in2="hardAlpha" operator="out"/>
<feColorMatrix type="matrix" values="0 0 0 0 0 0 0 0 0 0 0 0 0 0 0 0 0 0 0.34 0"/>
<feBlend mode="normal" in2="BackgroundImageFix" result="effect1_dropShadow_78_24"/>
<feBlend mode="normal" in="SourceGraphic" in2="effect1_dropShadow_78_24" result="shape"/>
</filter>
</defs>
</svg>
